<svg width="220" height="80" viewBox="0 0 220 80" fill="none" xmlns="http://www.w3.org/2000/svg">
  <defs>
    <linearGradient id="metaGradient" x1="26" y1="12" x2="76" y2="62" gradientUnits="userSpaceOnUse">
      <stop stop-color="#168CFF"/>
      <stop offset="1" stop-color="#0668E1"/>
    </linearGradient>
  </defs>
  <path
    d="M16 55.5C16 36.5 24.5 21 35.5 21C44.1 21 50.8 30.1 59 44.7C65 55.2 68.1 60 72.5 60C77.5 60 81.5 54.2 81.5 44.1C81.5 32.4 76.7 23 70.2 23C64.9 23 60.5 28.5 54.5 39.1L49.9 47.3C40.8 63 33.7 71 24.6 71C12.7 71 4 56.5 4 37.5C4 18.1 12.7 4 24.7 4C35.1 4 42 13 50.9 28L55.4 35.6C61.4 45.8 65.3 50.8 69.5 50.8C74.4 50.8 78 45.6 78 37.5C78 29.4 74.3 24.2 69.3 24.2C64.8 24.2 60.9 28.8 54.9 39L50.4 46.7C41.6 61.7 34.8 71 24.7 71C12.6 71 4 57.1 4 37.5"
    stroke="url(#metaGradient)"
    stroke-width="8"
    stroke-linecap="round"
    stroke-linejoin="round"
  />
  <text x="98" y="49" fill="#F3F6FB" font-family="Inter, Arial, sans-serif" font-size="32" font-weight="700" letter-spacing="-0.6">
    Meta Ads
  </text>
</svg>
